<mxfile host="65bd71144e">
    <diagram id="Gr6_HJ7Dy3nmJSYRRUoR" name="Page-1">
        <mxGraphModel dx="996" dy="574" grid="1" gridSize="10" guides="1" tooltips="1" connect="1" arrows="1" fold="1" page="1" pageScale="1" pageWidth="850" pageHeight="1100" math="0" shadow="0">
            <root>
                <mxCell id="0"/>
                <mxCell id="1" parent="0"/>
                <mxCell id="2" value="Фильтрация спам-сообщений электронной почты" style="rounded=0;whiteSpace=wrap;html=1;" parent="1" vertex="1">
                    <mxGeometry x="330" y="290" width="200" height="100" as="geometry"/>
                </mxCell>
                <mxCell id="3" value="" style="endArrow=classic;html=1;entryX=0;entryY=0.5;entryDx=0;entryDy=0;" parent="1" target="2" edge="1">
                    <mxGeometry width="50" height="50" relative="1" as="geometry">
                        <mxPoint x="200" y="340" as="sourcePoint"/>
                        <mxPoint x="240" y="340" as="targetPoint"/>
                    </mxGeometry>
                </mxCell>
                <mxCell id="4" value="" style="endArrow=classic;html=1;entryX=0;entryY=0.5;entryDx=0;entryDy=0;" parent="1" edge="1">
                    <mxGeometry width="50" height="50" relative="1" as="geometry">
                        <mxPoint x="530" y="339.5" as="sourcePoint"/>
                        <mxPoint x="660" y="339.5" as="targetPoint"/>
                    </mxGeometry>
                </mxCell>
                <mxCell id="5" value="" style="endArrow=classic;html=1;entryX=0.75;entryY=1;entryDx=0;entryDy=0;" parent="1" target="2" edge="1">
                    <mxGeometry width="50" height="50" relative="1" as="geometry">
                        <mxPoint x="480" y="480" as="sourcePoint"/>
                        <mxPoint x="450" y="390" as="targetPoint"/>
                    </mxGeometry>
                </mxCell>
                <mxCell id="6" value="" style="endArrow=classic;html=1;entryX=0.25;entryY=1;entryDx=0;entryDy=0;" parent="1" target="2" edge="1">
                    <mxGeometry width="50" height="50" relative="1" as="geometry">
                        <mxPoint x="380" y="480" as="sourcePoint"/>
                        <mxPoint x="450" y="390" as="targetPoint"/>
                    </mxGeometry>
                </mxCell>
                <mxCell id="7" value="Текст сообщения электронной почты" style="text;html=1;strokeColor=none;fillColor=none;align=center;verticalAlign=middle;whiteSpace=wrap;rounded=0;" parent="1" vertex="1">
                    <mxGeometry x="190" y="300" width="140" height="30" as="geometry"/>
                </mxCell>
                <mxCell id="8" value="Машина опорных векторов" style="text;html=1;strokeColor=none;fillColor=none;align=center;verticalAlign=middle;whiteSpace=wrap;rounded=0;" parent="1" vertex="1">
                    <mxGeometry x="380" y="420" width="60" height="30" as="geometry"/>
                </mxCell>
                <mxCell id="9" value="Модель нейронной сети" style="text;html=1;strokeColor=none;fillColor=none;align=center;verticalAlign=middle;whiteSpace=wrap;rounded=0;" parent="1" vertex="1">
                    <mxGeometry x="480" y="420" width="60" height="30" as="geometry"/>
                </mxCell>
                <mxCell id="10" value="Класс сообщения (спам, не спам, невозможно определить)" style="text;html=1;strokeColor=none;fillColor=none;align=center;verticalAlign=middle;whiteSpace=wrap;rounded=0;" parent="1" vertex="1">
                    <mxGeometry x="540" y="300" width="140" height="30" as="geometry"/>
                </mxCell>
                <mxCell id="11" value="А0" style="text;html=1;strokeColor=none;fillColor=none;align=center;verticalAlign=middle;whiteSpace=wrap;rounded=0;" vertex="1" parent="1">
                    <mxGeometry x="480" y="360" width="60" height="30" as="geometry"/>
                </mxCell>
            </root>
        </mxGraphModel>
    </diagram>
</mxfile>